<?xml version="1.0" encoding="UTF-8"?>
<svg id="Camada_1" xmlns="http://www.w3.org/2000/svg" version="1.1" viewBox="0 0 48 48">
  <!-- Generator: Adobe Illustrator 29.3.0, SVG Export Plug-In . SVG Version: 2.1.0 Build 146)  -->
  <defs>
    <style>
      .st0 {
        fill: #fff;
      }

      .st1 {
        fill: #7f56d9;
      }
    </style>
  </defs>
  <circle class="st1" cx="24" cy="23.1" r="23.2"/>
  <g id="OZrlz0.tif">
    <path class="st0" d="M30.5,26.3l7.6-4.6-1.7-2.9-7.7,4.4,4.4-7.5c0-.3-.4-.4-.5-.5-.3-.2-2.2-1.3-2.4-1.3l-4.5,7.5v-8.8h-3.4v8.8l-4.4-7.5c-.2-.2-2.7,1.5-3.1,1.7l4.2,7.4-7.4-4.2-1.7,3.1,7.5,4.4h-8.8v3.4h11c-.2-.5-.3-1.1-.3-1.7,0-2.5,2.1-4.6,4.6-4.6s4.6,2.1,4.6,4.6-.1,1.2-.3,1.7h11.1v-3.4h-8.9Z"/>
  </g>
</svg>