<?xml version="1.0" encoding="UTF-8"?>
<svg id="Camada_1" xmlns="http://www.w3.org/2000/svg" version="1.1" viewBox="0 0 48 48">
  <!-- Generator: Adobe Illustrator 29.3.0, SVG Export Plug-In . SVG Version: 2.1.0 Build 146)  -->
  <defs>
    <style>
      .st0 {
        font-size: 4px;
      }

      .st0, .st1 {
        isolation: isolate;
      }

      .st2 {
        font-family: Roboto-Medium, Roboto;
        font-weight: 500;
      }

      .st3 {
        font-family: Roboto-Bold, Roboto;
        font-weight: 700;
      }

      .st4 {
        fill: #7f56d9;
      }
    </style>
  </defs>
  <g id="OZrlz0.tif">
    <path class="st4" d="M7.8,23.6l1.6-1-.4-.6-1.6.9.9-1.6c0,0,0,0-.1-.1,0,0-.5-.3-.5-.3l-.9,1.6v-1.8h-.7v1.8l-.9-1.6s-.6.3-.7.4l.9,1.6-1.6-.9-.4.6,1.6.9h-1.8v.7h2.3c0-.1,0-.2,0-.4,0-.5.4-1,1-1s1,.4,1,1,0,.3,0,.4h2.3v-.7h-1.9Z"/>
    <g class="st1">
      <text class="st0" transform="translate(12.3 24.3)"><tspan class="st3" x="0" y="0">A D S T O C K </tspan><tspan class="st2" x="25.4" y="0">. A I</tspan></text>
    </g>
  </g>
</svg>